<mxfile host="app.diagrams.net" modified="2024-01-28T08:42:02.175Z" agent="Mozilla/5.0 (Windows NT 10.0; Win64; x64) AppleWebKit/537.36 (KHTML, like Gecko) Chrome/120.0.0.0 Safari/537.36 OPR/106.0.0.0" etag="xw02s5JAzb30aZQbASHG" version="22.1.21" type="github">
  <diagram name="Page-1" id="ap8TJGyYvZVYXYRMnT9Q">
    <mxGraphModel dx="351" dy="175" grid="1" gridSize="10" guides="1" tooltips="1" connect="1" arrows="1" fold="1" page="1" pageScale="1" pageWidth="827" pageHeight="1169" math="0" shadow="0">
      <root>
        <mxCell id="0" />
        <mxCell id="1" parent="0" />
        <mxCell id="tZRNG6DAFCbAQGiG9bD6-1" value="" style="ellipse;html=1;shape=startState;fillColor=#000000;strokeColor=#ff0000;" vertex="1" parent="1">
          <mxGeometry x="399" y="10" width="30" height="30" as="geometry" />
        </mxCell>
        <mxCell id="tZRNG6DAFCbAQGiG9bD6-2" value="" style="edgeStyle=orthogonalEdgeStyle;html=1;verticalAlign=bottom;endArrow=open;endSize=8;strokeColor=#ff0000;rounded=0;" edge="1" source="tZRNG6DAFCbAQGiG9bD6-1" parent="1">
          <mxGeometry relative="1" as="geometry">
            <mxPoint x="414" y="100" as="targetPoint" />
          </mxGeometry>
        </mxCell>
        <mxCell id="tZRNG6DAFCbAQGiG9bD6-4" value="Job&lt;br&gt;request" style="html=1;whiteSpace=wrap;" vertex="1" parent="1">
          <mxGeometry x="373" y="100" width="79" height="40" as="geometry" />
        </mxCell>
        <mxCell id="tZRNG6DAFCbAQGiG9bD6-5" value="View the &lt;br&gt;job" style="html=1;whiteSpace=wrap;" vertex="1" parent="1">
          <mxGeometry x="373" y="180" width="81" height="40" as="geometry" />
        </mxCell>
        <mxCell id="tZRNG6DAFCbAQGiG9bD6-7" value="" style="endArrow=open;endFill=1;endSize=12;html=1;rounded=0;exitX=0.5;exitY=1;exitDx=0;exitDy=0;" edge="1" parent="1" source="tZRNG6DAFCbAQGiG9bD6-4" target="tZRNG6DAFCbAQGiG9bD6-5">
          <mxGeometry width="160" relative="1" as="geometry">
            <mxPoint x="330" y="190" as="sourcePoint" />
            <mxPoint x="490" y="190" as="targetPoint" />
          </mxGeometry>
        </mxCell>
        <mxCell id="tZRNG6DAFCbAQGiG9bD6-8" value="" style="rhombus;whiteSpace=wrap;html=1;" vertex="1" parent="1">
          <mxGeometry x="406" y="260" width="16" height="20" as="geometry" />
        </mxCell>
        <mxCell id="tZRNG6DAFCbAQGiG9bD6-13" value="" style="edgeStyle=elbowEdgeStyle;elbow=horizontal;endArrow=classic;html=1;curved=0;rounded=0;endSize=8;startSize=8;entryX=1.064;entryY=0.6;entryDx=0;entryDy=0;entryPerimeter=0;exitX=1;exitY=0.5;exitDx=0;exitDy=0;" edge="1" parent="1" source="tZRNG6DAFCbAQGiG9bD6-8" target="tZRNG6DAFCbAQGiG9bD6-4">
          <mxGeometry width="50" height="50" relative="1" as="geometry">
            <mxPoint x="430" y="290" as="sourcePoint" />
            <mxPoint x="440" y="170" as="targetPoint" />
            <Array as="points">
              <mxPoint x="500" y="210" />
            </Array>
          </mxGeometry>
        </mxCell>
        <mxCell id="tZRNG6DAFCbAQGiG9bD6-14" value="Rejected" style="text;html=1;strokeColor=none;fillColor=none;align=center;verticalAlign=middle;whiteSpace=wrap;rounded=0;" vertex="1" parent="1">
          <mxGeometry x="429" y="240" width="60" height="30" as="geometry" />
        </mxCell>
        <mxCell id="tZRNG6DAFCbAQGiG9bD6-15" value="Accepted" style="text;html=1;strokeColor=none;fillColor=none;align=center;verticalAlign=middle;whiteSpace=wrap;rounded=0;" vertex="1" parent="1">
          <mxGeometry x="354" y="280" width="60" height="30" as="geometry" />
        </mxCell>
        <mxCell id="tZRNG6DAFCbAQGiG9bD6-16" value="" style="endArrow=classic;html=1;rounded=0;" edge="1" parent="1">
          <mxGeometry width="50" height="50" relative="1" as="geometry">
            <mxPoint x="414" y="280" as="sourcePoint" />
            <mxPoint x="414" y="320" as="targetPoint" />
          </mxGeometry>
        </mxCell>
        <mxCell id="tZRNG6DAFCbAQGiG9bD6-18" value="" style="endArrow=classic;html=1;rounded=0;exitX=0.5;exitY=1;exitDx=0;exitDy=0;entryX=0.5;entryY=0;entryDx=0;entryDy=0;" edge="1" parent="1" source="tZRNG6DAFCbAQGiG9bD6-5" target="tZRNG6DAFCbAQGiG9bD6-8">
          <mxGeometry width="50" height="50" relative="1" as="geometry">
            <mxPoint x="390" y="320" as="sourcePoint" />
            <mxPoint x="470" y="370" as="targetPoint" />
          </mxGeometry>
        </mxCell>
        <mxCell id="tZRNG6DAFCbAQGiG9bD6-19" value="" style="rhombus;whiteSpace=wrap;html=1;" vertex="1" parent="1">
          <mxGeometry x="406" y="320" width="16" height="20" as="geometry" />
        </mxCell>
        <mxCell id="tZRNG6DAFCbAQGiG9bD6-21" value="" style="endArrow=classic;html=1;rounded=0;" edge="1" parent="1">
          <mxGeometry width="50" height="50" relative="1" as="geometry">
            <mxPoint x="424" y="330" as="sourcePoint" />
            <mxPoint x="500" y="330" as="targetPoint" />
          </mxGeometry>
        </mxCell>
        <mxCell id="tZRNG6DAFCbAQGiG9bD6-22" value="Have" style="text;html=1;strokeColor=none;fillColor=none;align=center;verticalAlign=middle;whiteSpace=wrap;rounded=0;" vertex="1" parent="1">
          <mxGeometry x="422" y="300" width="60" height="30" as="geometry" />
        </mxCell>
        <mxCell id="tZRNG6DAFCbAQGiG9bD6-23" value="No" style="text;html=1;strokeColor=none;fillColor=none;align=center;verticalAlign=middle;whiteSpace=wrap;rounded=0;" vertex="1" parent="1">
          <mxGeometry x="354" y="350" width="60" height="30" as="geometry" />
        </mxCell>
        <mxCell id="tZRNG6DAFCbAQGiG9bD6-24" value="Design" style="html=1;whiteSpace=wrap;" vertex="1" parent="1">
          <mxGeometry x="500" y="310" width="50" height="30" as="geometry" />
        </mxCell>
        <mxCell id="tZRNG6DAFCbAQGiG9bD6-25" value="" style="rhombus;whiteSpace=wrap;html=1;" vertex="1" parent="1">
          <mxGeometry x="512" y="380" width="16" height="20" as="geometry" />
        </mxCell>
        <mxCell id="tZRNG6DAFCbAQGiG9bD6-26" value="" style="endArrow=classic;html=1;rounded=0;exitX=0.556;exitY=1.087;exitDx=0;exitDy=0;entryX=0.5;entryY=0;entryDx=0;entryDy=0;exitPerimeter=0;" edge="1" parent="1" source="tZRNG6DAFCbAQGiG9bD6-24" target="tZRNG6DAFCbAQGiG9bD6-25">
          <mxGeometry width="50" height="50" relative="1" as="geometry">
            <mxPoint x="524.5" y="350" as="sourcePoint" />
            <mxPoint x="525" y="380" as="targetPoint" />
            <Array as="points">
              <mxPoint x="520" y="340" />
              <mxPoint x="520" y="350" />
            </Array>
          </mxGeometry>
        </mxCell>
        <mxCell id="tZRNG6DAFCbAQGiG9bD6-28" value="" style="edgeStyle=elbowEdgeStyle;elbow=horizontal;endArrow=classic;html=1;curved=0;rounded=0;endSize=8;startSize=8;entryX=1;entryY=0.5;entryDx=0;entryDy=0;exitX=1;exitY=0.5;exitDx=0;exitDy=0;" edge="1" parent="1" source="tZRNG6DAFCbAQGiG9bD6-25" target="tZRNG6DAFCbAQGiG9bD6-24">
          <mxGeometry width="50" height="50" relative="1" as="geometry">
            <mxPoint x="590" y="385" as="sourcePoint" />
            <mxPoint x="611" y="320" as="targetPoint" />
            <Array as="points">
              <mxPoint x="571" y="220" />
            </Array>
          </mxGeometry>
        </mxCell>
        <mxCell id="tZRNG6DAFCbAQGiG9bD6-34" value="" style="shape=partialRectangle;whiteSpace=wrap;html=1;bottom=0;right=0;fillColor=none;rotation=-180;" vertex="1" parent="1">
          <mxGeometry x="468" y="400" width="52" height="30" as="geometry" />
        </mxCell>
        <mxCell id="tZRNG6DAFCbAQGiG9bD6-39" style="edgeStyle=orthogonalEdgeStyle;rounded=0;orthogonalLoop=1;jettySize=auto;html=1;exitX=0.75;exitY=1;exitDx=0;exitDy=0;" edge="1" parent="1" source="tZRNG6DAFCbAQGiG9bD6-22" target="tZRNG6DAFCbAQGiG9bD6-22">
          <mxGeometry relative="1" as="geometry" />
        </mxCell>
      </root>
    </mxGraphModel>
  </diagram>
</mxfile>
